<?xml version="1.0" encoding="UTF-8"?>
<svg id="Layer_2" data-name="Layer 2" xmlns="http://www.w3.org/2000/svg" viewBox="0 0 197.5 48.74">
  <defs>
    <style>
      .cls-1 {
        fill: #d9a928;
      }
    </style>
  </defs>
  <g id="Layer_1-2" data-name="Layer 1">
    <g>
      <path d="m95.89,2.41c.47,0,.85-.38.85-.85s-.38-.85-.85-.85-.85.38-.85.85.38.85.85.85"/>
      <path d="m101.96,2.46c.47,0,.85-.38.85-.85s-.38-.85-.85-.85-.85.38-.85.85.38.85.85.85"/>
      <rect x="76.34" y=".21" width="1.46" height="19.26"/>
      <polygon points="28.31 .21 28.31 17.83 28.3 17.83 28.3 19.29 40.9 19.29 42.36 19.29 62.78 19.29 62.78 17.4 62.76 17.4 62.76 12.49 61.3 12.49 61.3 17.4 59.99 17.4 59.99 13.88 58.53 13.88 58.53 17.4 57.25 17.4 57.25 15.12 55.78 15.12 55.78 17.4 49.06 17.4 49.06 11.07 47.6 11.07 47.6 17.4 42.36 17.4 42.36 12.33 40.9 12.33 40.9 17.4 39.63 17.4 39.63 13.88 38.16 13.88 38.16 17.4 36.88 17.4 36.88 15.12 35.42 15.12 35.42 17.4 29.77 17.4 29.77 .21 28.31 .21"/>
      <path d="m62.78,24.49h-2.14s0-.01,0-.02c0-.58.44-1.05,1.02-1.09h1.12v-.76h-1.05c-.2,0-.41.03-.6.09h0c-.74.26-1.24.97-1.24,1.75,0,0,0,.01,0,.02h-.81v.79h3.73v-.52s-.02.04-.03.06v-.34Z"/>
      <path d="m71.5,21.96c0,.95-.77,1.72-1.72,1.72s-1.72-.77-1.72-1.72.77-1.72,1.72-1.72,1.72.77,1.72,1.72m.19-3.92c-.23-.06-.46-.08-.69-.08-.23,0-.45.03-.67.08-.21.05-.4.13-.59.24,0,0,0,0-.01,0-.03,0-.06.01-.09.01-.62-.3-1.33-.39-2-.24-.01,0-.03,0-.04.01V.21s-1.47-.21-1.47-.21v19.25l.05.21s0,0,0,0h1.42c.18-.06.36-.08.55-.09-.16.1-.32.22-.46.36l-.11.11c-1.14,1.25-1.09,3.18.1,4.37.38.37.86.63,1.38.75.23.06.46.09.7.09.22,0,.44-.03.66-.08.55-.12,1.04-.4,1.44-.8,1.18-1.19,1.22-3.1.09-4.35,0,0-.33-.33-.66-.46.14.01.28.04.42.08h0s1.46.01,1.46.01V.21h-1.46v17.83Z"/>
      <path d="m23.29,18.84v2.15c.06,2.04-.87,3.99-2.49,5.24-1.33,1.11-3,1.72-4.74,1.75,1.02.3,2.12.3,3.14,0,1.55-.47,2.95-1.36,4.02-2.58.75-1.04,1.26-2.22,1.5-3.48v-2.2h.03v-8.15h-1.47v7.27Z"/>
      <path d="m1.5,17.47c0-2.75,2.23-4.55,4.97-4.55,2.75,0,4.97,1.8,4.97,4.55H1.5Zm18.64,1.89v-7.84h-1.46v5.96h-5.72c0-3.58-2.9-6.05-6.48-6.05S0,14.32,0,17.9c0,.06,0,.11,0,.17v.33s0,.04,0,.06v.9h20.13Z"/>
      <path d="m4.62,8.96c.47,0,.85-.38.85-.85s-.38-.85-.85-.85-.85.38-.85.85.38.85.85.85"/>
      <path d="m8.23,8.96c.47,0,.85-.38.85-.85s-.38-.85-.85-.85-.85.38-.85.85.38.85.85.85"/>
      <path d="m14.6,21.65c-.47,0-.85.38-.85.85s.38.85.85.85.85-.38.85-.85-.38-.85-.85-.85"/>
      <path d="m17.35,22.51c0,.47.38.85.85.85s.85-.38.85-.85-.38-.85-.85-.85-.85.38-.85.85"/>
      <path d="m36.14,8.93c.47,0,.85-.38.85-.85s-.38-.85-.85-.85-.85.38-.85.85.38.85.85.85"/>
      <path d="m38.91,8.93c.47,0,.85-.38.85-.85s-.38-.85-.85-.85-.85.38-.85.85.38.85.85.85"/>
      <path d="m41.65,8.93c.47,0,.85-.38.85-.85s-.38-.85-.85-.85-.85.38-.85.85.38.85.85.85"/>
      <path d="m48.3,6.25c.47,0,.85-.38.85-.85s-.38-.85-.85-.85-.85.38-.85.85.38.85.85.85"/>
      <path d="m48.33,7.18c-.47,0-.85.38-.85.85s.38.86.85.86.85-.38.85-.86-.38-.85-.85-.85"/>
      <path d="m189.93,20.54h0c-1.24,0-2.25-1.01-2.25-2.25s1.01-2.25,2.25-2.25,2.25,1.01,2.25,2.25-1.01,2.25-2.25,2.25m-32.56,0c-1.24,0-2.25-1.01-2.25-2.25s1.01-2.25,2.25-2.25,2.25,1.01,2.25,2.25-1.01,2.25-2.25,2.25m-19.73-3.08c.03-2.65,2.12-5.08,4.78-5.06h.14l.03,5.03-4.95.03Zm53.14-2.83s-.1-.02-.15-.03V.3h-1.55v14.31s-.03,0-.05,0c-1.31.3-2.41,1.48-2.8,2.77l-8.74-.03-.02-.22h.01s.01-2.9-.05-3.4c-.06-.5-.61-2.89-3.39-2.9-2.27-.01-8.49,0-8.49,0v1.56l8.41-.1s2-.12,2.03,1.94c.03,1.27,0,2.88,0,2.88h.01s0,.05,0,.08l-.03.09-.08.05-14.9.02c-.55-1.99-2.63-3.33-4.63-2.78-1.27.35-2.24,1.56-2.6,2.84l-9.73.05.04-6.34c-.49-.12-.99-.19-1.5-.21h-.14c-3.48-.02-6.32,2.79-6.35,6.27v2.13h.4s0,0,0-.01h6.11c-.06.89-.18,1.78-.37,2.65,0,.05-.04.1-.05.15-.18.45-.42.88-.7,1.28-.52.79-1.21,1.47-2.01,1.98-1.31.62-2.72,1.02-4.16,1.18,1.51.32,3.09.15,4.5-.48,1.21-.55,2.22-1.44,2.91-2.58.32-.51.58-1.06.79-1.63.05-.1.08-.2.11-.3.26-.72.38-1.48.35-2.25h9.74c.52,2,2.56,3.2,4.57,2.69,1.32-.34,2.35-1.37,2.69-2.69h25.33c.57,1.99,2.64,3.14,4.63,2.57s3.14-2.64,2.57-4.63c-.37-1.29-1.4-2.29-2.71-2.61"/>
      <path d="m128.32,11.11c-1.32.19-2.56.75-3.57,1.61-.1.08-.21.18-.31.27-1.17,1.08-1.83,2.89-1.84,4.49h-6.92c.03-2.3-.4-4.64-1.36-6.89-1.69-3.95-4.81-7.1-8.74-8.83l-.51,1.42c7.65,3.41,11.2,12.32,7.93,20.07-3.31,7.85-12.36,11.53-20.21,8.22-7.85-3.31-11.53-12.36-8.22-20.21,1.54-3.66,4.44-6.56,8.07-8.14l-.51-1.43c-8.57,3.67-12.55,13.6-8.89,22.17,3.67,8.58,13.6,12.57,22.18,8.9,5.73-2.45,9.41-7.7,10.13-13.47h17.23v-1.82s-8.69,0-8.69,0c.06-1.89,1.27-3.85,3.06-4.49.28-.11.56-.2.85-.27.45-.11.91-.16,1.38-.16h3.42v-1.44h-4.49Z"/>
      <path d="m172.62,21.17c-.47,0-.85.38-.85.85s.38.85.85.85.85-.38.85-.85-.38-.85-.85-.85"/>
      <rect x="196.06" y=".3" width="1.44" height="18.99"/>
      <path d="m32.49,40.18c.51,0,.96.1,1.35.3.39.2.76.53,1.09.97l.04.06h1.32l-.16-.29c-.37-.68-.87-1.21-1.5-1.59-.63-.37-1.35-.56-2.14-.56-.55,0-1.07.1-1.54.28-.47.19-.9.47-1.28.83-.41.38-.72.83-.93,1.31-.21.48-.32,1-.32,1.54,0,1.15.4,2.12,1.18,2.89.78.77,1.77,1.16,2.93,1.16.76,0,1.46-.18,2.07-.54.61-.36,1.11-.87,1.47-1.52l.16-.29h-1.24l-.09.02-.04.06c-.29.39-.64.69-1.04.89-.4.2-.84.3-1.34.3-.79,0-1.48-.29-2.03-.85-.56-.57-.84-1.27-.84-2.1,0-.77.28-1.45.84-2.02.56-.56,1.24-.85,2.03-.85"/>
      <path d="m41.56,42.5c.38-.39.84-.59,1.37-.59.59,0,1.09.19,1.47.58.38.38.58.88.58,1.48s-.19,1.09-.57,1.48c-.38.39-.85.59-1.41.59s-1.05-.2-1.43-.59c-.38-.39-.58-.88-.58-1.47s.19-1.08.57-1.47m1.38-1.66c-.84,0-1.58.31-2.19.92s-.92,1.36-.92,2.22.31,1.59.92,2.2c.61.61,1.37.92,2.25.92s1.62-.31,2.23-.93c.61-.62.92-1.38.92-2.25s-.32-1.57-.94-2.17c-.62-.6-1.38-.91-2.26-.91"/>
      <path d="m54.5,41.89h0c-.21-.31-.5-.55-.86-.72-.35-.16-.76-.24-1.21-.24-.41,0-.77.07-1.09.2-.18.08-.36.17-.52.3v-.38h-1.11v5.93h1.11v-2.89c0-.47.02-.79.05-.97.03-.17.09-.32.17-.45.13-.21.3-.37.52-.48.22-.11.49-.17.79-.17.51,0,.88.13,1.1.38.23.26.34.69.34,1.3v3.3h1.11v-3.09c0-.53-.03-.94-.09-1.22-.06-.29-.17-.55-.31-.77"/>
      <path d="m61.3,43.54h0c-.1-.04-.28-.1-.55-.18-.25-.07-.44-.15-.56-.22-.13-.07-.21-.15-.26-.24-.05-.08-.07-.19-.07-.32,0-.18.06-.32.18-.44.12-.12.28-.18.47-.18.22,0,.38.06.5.16.12.11.18.27.2.48v.18h1.19v-.2c-.03-.53-.21-.95-.54-1.26-.33-.3-.76-.45-1.3-.45s-.95.17-1.32.51c-.36.34-.55.76-.55,1.25,0,.43.11.78.34,1.04.22.26.65.49,1.33.73.37.13.62.27.75.4.12.12.17.29.17.5s-.07.38-.22.52c-.15.14-.35.21-.59.21s-.45-.09-.62-.28c-.17-.19-.26-.43-.26-.73v-.22h-1.15v.2c.02.62.22,1.13.58,1.51.36.38.85.57,1.44.57s1.06-.17,1.44-.52c.39-.35.58-.79.58-1.33,0-.42-.1-.77-.29-1.05-.19-.28-.49-.5-.88-.66"/>
      <path d="m70.04,43.93c0,.47-.02.8-.05.99-.03.17-.09.32-.16.45-.13.21-.31.38-.53.49-.22.11-.48.17-.78.17-.52,0-.89-.13-1.1-.4-.22-.28-.34-.78-.34-1.48v-3.14h-1.11v3.09c0,1.04.2,1.81.59,2.27.4.48,1.05.72,1.94.72.41,0,.77-.07,1.07-.19.17-.07.32-.17.47-.29v.33h1.13v-5.93h-1.13v2.92Z"/>
      <rect x="74.7" y="39.09" width="1.13" height="7.85"/>
      <polygon points="80.54 39.09 80.54 41.01 79.45 41.01 79.45 42.12 80.54 42.12 80.54 46.94 81.67 46.94 81.67 42.12 82.76 42.12 82.76 41.01 81.67 41.01 81.67 39.09 80.54 39.09"/>
      <path d="m88.11,42.54c.39-.4.88-.6,1.44-.6.51,0,.97.2,1.36.6.4.4.6.87.6,1.4,0,.58-.2,1.07-.59,1.48-.39.41-.86.61-1.39.61s-1.03-.2-1.42-.58c-.39-.38-.59-.86-.59-1.42,0-.59.2-1.09.59-1.49m3.4-.95c-.19-.17-.4-.31-.64-.42-.39-.18-.83-.28-1.3-.28-.91,0-1.68.3-2.28.89-.61.59-.92,1.34-.92,2.22s.3,1.6.9,2.2c.59.59,1.35.89,2.24.89.48,0,.93-.1,1.35-.29.24-.11.47-.26.65-.42v.57h1.11v-5.93h-1.11v.58Z"/>
      <path d="m100.97,41.86h0c-.21-.31-.5-.55-.86-.72-.35-.16-.76-.24-1.21-.24-.41,0-.77.07-1.09.2-.18.08-.36.17-.52.3v-.38h-1.11v5.93h1.11v-2.89c0-.47.02-.79.05-.97.03-.17.09-.32.17-.45.13-.21.3-.37.52-.48.22-.11.49-.17.79-.17.51,0,.88.13,1.1.38.23.26.34.69.34,1.3v3.3h1.12v-3.09c0-.53-.03-.94-.09-1.22-.06-.29-.17-.55-.31-.77"/>
      <path d="m108.11,41.92c.41,0,.77.09,1.06.26.3.18.55.45.77.84l.04.08h1.22l-.11-.27c-.25-.62-.63-1.11-1.14-1.46-.51-.34-1.1-.52-1.76-.52-.88,0-1.64.31-2.25.91-.62.61-.93,1.35-.93,2.22s.31,1.59.92,2.19c.61.6,1.36.91,2.24.91.68,0,1.29-.18,1.8-.53.51-.35.89-.85,1.12-1.49l.1-.26h-1.22l-.05.11c-.16.35-.4.62-.7.81s-.67.29-1.08.29c-.55,0-1.02-.2-1.39-.58-.38-.39-.57-.88-.57-1.46s.19-1.08.56-1.47c.37-.39.83-.59,1.37-.59"/>
      <polygon points="118.65 41.01 116.93 45.18 115.28 41.01 114.02 41.01 116.31 46.73 115.45 48.74 116.67 48.74 119.91 41.06 119.93 41.01 118.65 41.01"/>
      <path d="m130.17,44.08h3.77c-.17.53-.49.97-.94,1.32-.51.4-1.1.6-1.75.6-.83,0-1.53-.29-2.09-.84-.56-.56-.85-1.27-.85-2.11,0-.79.29-1.47.85-2.03.56-.56,1.26-.85,2.08-.85.47,0,.9.1,1.28.29.38.2.75.51,1.1.94l.05.06h1.34l-.16-.29c-.37-.66-.87-1.18-1.48-1.55-.61-.36-1.32-.54-2.08-.54-.58,0-1.11.09-1.59.28-.48.18-.92.47-1.31.84-.41.39-.72.83-.93,1.31s-.32,1-.32,1.54c0,1.14.39,2.12,1.17,2.89.77.77,1.75,1.17,2.89,1.17s2.07-.36,2.84-1.08c.77-.72,1.19-1.65,1.26-2.76v-.21s-5.11,0-5.11,0v1.04Z"/>
      <path d="m141.08,40.93c-.31,0-.6.08-.84.2-.1.06-.21.13-.31.21v-.33h-1.09v5.93h1.14v-3.54c0-.46.08-.79.25-.98.16-.19.45-.3.86-.33l.18-.02v-1.15s-.21,0-.21,0Z"/>
      <path d="m149.78,43.96c0,.59-.19,1.09-.57,1.48-.38.39-.85.59-1.41.59s-1.05-.2-1.43-.59c-.38-.39-.58-.88-.58-1.47s.19-1.08.57-1.47c.38-.39.84-.59,1.37-.59.59,0,1.09.2,1.47.58s.58.88.58,1.48m-2.04-3.13c-.84,0-1.58.31-2.19.92s-.92,1.36-.92,2.22.31,1.59.92,2.2c.61.61,1.37.92,2.25.92s1.62-.31,2.23-.93c.61-.62.92-1.38.92-2.25s-.32-1.57-.94-2.17c-.62-.6-1.38-.91-2.26-.91"/>
      <path d="m158.61,43.93c0,.47-.02.81-.05.99-.03.17-.09.32-.16.45-.13.21-.31.38-.53.49-.22.11-.48.17-.78.17-.52,0-.89-.13-1.1-.4-.22-.28-.34-.78-.34-1.48v-3.14h-1.12v3.09c0,1.04.2,1.81.59,2.27.4.48,1.06.72,1.94.72.42,0,.78-.07,1.07-.19.17-.07.32-.17.47-.29v.33h1.13v-5.93h-1.13v2.92Z"/>
      <path d="m168.41,44.03c0,.56-.2,1.04-.59,1.43-.39.38-.87.58-1.41.58s-.99-.21-1.39-.61c-.39-.41-.59-.91-.59-1.48,0-.53.2-1,.59-1.4s.85-.6,1.36-.6c.56,0,1.04.2,1.43.6.39.4.59.9.59,1.49m.25-2.25c-.6-.59-1.37-.89-2.29-.89-.47,0-.91.1-1.32.3-.23.11-.44.25-.61.4v-.58h-1.12v7.72h1.12v-2.36c.19.17.41.32.65.43.4.19.85.28,1.34.28.89,0,1.65-.3,2.24-.89.6-.59.9-1.33.9-2.19s-.31-1.63-.91-2.22"/>
      <path class="cls-1" d="m98.85,3.15c-7.76,0-14.07,6.31-14.07,14.07s6.31,14.06,14.07,14.06,14.06-6.31,14.06-14.06-6.31-14.07-14.06-14.07Zm0,27.1l-2.49-5.99,2.49-1.03,2.48,1.03-2.48,5.99Zm0-26.07l2.48,5.99-2.48,1.03-2.49-1.03,2.49-5.99Zm6.74,9.81l-2.48-1.03-1.03-2.48,5.99-2.48-2.48,5.99Zm-9.43,9.75l-.81-1.95,2.76,1.14-1.95.81Zm-1.12-2.7l-1.59-3.82,1.59-3.82,3.82-1.58,3.82,1.58,1.59,3.82-1.59,3.82-3.82,1.58-3.82-1.58Zm-.75-.31l-1.96-.81.81-1.96,1.15,2.77Zm-1.15-4.25l-.81-1.96,1.96-.81-1.15,2.77Zm3.01-5.77l1.95.81-2.76,1.14.81-1.95Zm5.4,0l.81,1.95-2.76-1.14,1.95-.81Zm3.01,7.26l.81,1.96-1.96.81,1.15-2.77Zm-1.15-4.25l1.96.81-.81,1.96-1.15-2.77Zm-8.81-.74l-2.49,1.03-2.48-5.99,5.99,2.48-1.03,2.48Zm-2.79,1.78l1.03,2.48-1.03,2.48-5.99-2.48,5.99-2.48Zm.3,5.71l2.49,1.03,1.03,2.48-5.99,2.48,2.48-5.99Zm7.48,2.48l2.76-1.14-.81,1.95-1.95-.81Zm3.51-1.45l2.48-1.03,2.48,5.99-5.99-2.48,1.03-2.48Zm2.79-1.78l-1.03-2.48,1.03-2.48,5.99,2.48-5.99,2.48Zm.22-5.49l2.58-6.22c2.17,2.32,3.54,5.4,3.65,8.8l-6.22-2.58Zm1.97-6.83l-6.22,2.58-2.58-6.23c3.39.11,6.48,1.47,8.8,3.65Zm-9.65-3.65l-2.58,6.23-6.23-2.58c2.32-2.17,5.41-3.54,8.81-3.65Zm-9.42,4.26l2.58,6.22-6.23,2.58c.11-3.4,1.47-6.48,3.65-8.8Zm2.58,12.24l-2.58,6.22c-2.17-2.32-3.54-5.41-3.65-8.8l6.23,2.58Zm-1.97,6.83l6.23-2.58,2.58,6.23c-3.4-.11-6.49-1.47-8.81-3.65Zm9.66,3.65l2.58-6.23,6.22,2.58c-2.32,2.17-5.41,3.54-8.8,3.65Zm9.41-4.26l-2.57-6.22,6.22-2.58c-.11,3.4-1.47,6.48-3.65,8.8Z"/>
    </g>
  </g>
</svg>